<svg width="916" height="806" viewBox="0 0 916 806" fill="none" xmlns="http://www.w3.org/2000/svg">
<path d="M414.484 419.531C364.047 414.094 313.422 410.531 262.609 408.844C248.078 437.062 233.547 464.953 219.016 492.516L56.3125 802.031C54.625 804.562 52.5156 805.828 49.9844 805.828C48.8594 805.828 47.7344 805.547 46.6094 804.984C44.9219 804.047 43.7969 802.641 43.2344 800.766C42.6719 798.984 42.8125 797.203 43.6562 795.422L206.219 486.188C219.812 460.5 233.359 434.531 246.859 408.281C174.953 406.312 103.188 408.047 31.5625 413.484C29.5938 413.578 27.9062 413.016 26.5 411.797C25 410.578 24.1562 408.984 23.9688 407.016C23.875 404.953 24.4375 403.219 25.6562 401.812C26.875 400.406 28.4688 399.609 30.4375 399.422C104.875 393.703 179.453 391.969 254.172 394.219C275.453 352.969 295.797 311.344 315.203 269.344C323.828 250.688 332.406 230.625 340.938 209.156C349.562 187.594 357.062 165.234 363.438 142.078C366.625 131.016 369.25 118.641 371.312 104.953C373.469 91.1719 373.797 77.0156 372.297 62.4844C370.422 47.0156 365.875 35.4844 358.656 27.8906C349.188 18.3281 336.156 13.8281 319.562 14.3906C311.688 14.9531 303.953 16.4063 296.359 18.75C288.859 21.0937 281.781 23.6719 275.125 26.4844C184.938 63.6094 107.219 118.406 41.9688 190.875C35.2188 198.188 29.3125 205.875 24.25 213.938C19.0938 222 16.0469 230.484 15.1094 239.391C14.9219 241.359 14.125 242.953 12.7188 244.172C11.2188 245.391 9.4375 245.953 7.375 245.859C5.40625 245.578 3.8125 244.734 2.59375 243.328C1.375 241.828 0.8125 240.094 0.90625 238.125C2.125 227.156 5.64062 217.031 11.4531 207.75C17.1719 198.375 23.8281 189.609 31.4219 181.453C98.0781 107.391 177.484 51.3281 269.641 13.2656C276.859 10.2656 284.594 7.5 292.844 4.96875C301.188 2.34375 309.859 0.75 318.859 0.1875C339.766 -0.46875 356.453 5.48437 368.922 18.0469C378.391 27.9844 384.203 42.2344 386.359 60.7969C387.953 76.5469 387.625 91.7344 385.375 106.359C383.219 120.984 380.5 134.156 377.219 145.875C370.656 169.5 363.016 192.281 354.297 214.219C345.578 236.062 336.859 256.406 328.141 275.25C309.578 315.562 290.125 355.453 269.781 394.922C318.531 396.703 367.141 400.172 415.609 405.328C419.547 410.766 419.172 415.5 414.484 419.531ZM538.797 455.109C539.922 453.891 541.281 453.234 542.875 453.141C544.469 452.953 545.922 453.422 547.234 454.547C548.453 455.672 549.109 457.031 549.203 458.625C549.391 460.219 548.922 461.672 547.797 462.984C535.047 477.609 524.594 488.109 516.438 494.484C508.375 500.859 502 504.609 497.312 505.734C492.719 506.766 489.203 506.625 486.766 505.312C482.922 503.438 480.391 500.812 479.172 497.438C478.047 493.969 477.578 491.062 477.766 488.719C478.422 481.5 479.922 474.281 482.266 467.062C484.703 459.844 487.234 452.953 489.859 446.391C489.953 446.203 490 446.062 490 445.969C490.094 445.875 490.188 445.734 490.281 445.547C471.906 461.672 449.547 482.109 423.203 506.859C422.078 507.891 420.766 508.453 419.266 508.547C418.141 508.547 417.062 508.266 416.031 507.703C413.594 506.016 412.703 503.766 413.359 500.953C421.234 473.953 433.469 448.688 450.062 425.156C451 423.844 452.266 423.047 453.859 422.766C455.453 422.484 456.953 422.812 458.359 423.75C459.672 424.781 460.469 426.094 460.75 427.688C461.031 429.188 460.703 430.641 459.766 432.047C449.078 447.234 440.078 463.734 432.766 481.547C443.641 471.422 452.875 462.891 460.469 455.953C468.156 449.016 474.484 443.344 479.453 438.938C484.516 434.531 488.547 431.156 491.547 428.812C494.641 426.469 496.984 424.828 498.578 423.891C500.266 422.953 501.484 422.484 502.234 422.484C503.078 422.391 503.828 422.438 504.484 422.625C505.984 423.188 507.109 424.172 507.859 425.578C508.609 426.891 508.797 428.344 508.422 429.938C506.641 436.219 504.203 443.156 501.109 450.75C498.578 456.938 496.188 463.406 493.938 470.156C491.688 476.812 490.281 483.281 489.719 489.562C489.719 490.031 489.766 490.641 489.859 491.391C490.047 492.047 490.234 492.656 490.422 493.219C490.703 493.781 491.031 494.156 491.406 494.344C491.406 494.344 491.641 494.391 492.109 494.484C492.672 494.484 493.469 494.344 494.5 494.062C495.531 493.781 496.844 493.219 498.438 492.375C500.125 491.531 502.188 490.266 504.625 488.578C507.062 486.797 509.922 484.453 513.203 481.547C516.484 478.641 520.234 475.031 524.453 470.719C528.766 466.406 533.547 461.203 538.797 455.109ZM561.578 495.609C572.266 496.547 584.266 494.156 597.578 488.438C610.891 482.625 621.484 476.391 629.359 469.734C630.672 468.609 632.125 468.141 633.719 468.328C635.312 468.422 636.672 469.078 637.797 470.297C638.922 471.609 639.391 473.062 639.203 474.656C639.109 476.25 638.453 477.609 637.234 478.734C632.172 483.141 625.609 487.594 617.547 492.094C609.578 496.5 601.047 500.25 591.953 503.344C582.859 506.438 574.281 507.984 566.219 507.984C564.062 507.984 562 507.844 560.031 507.562C551.219 506.344 544.703 502.547 540.484 496.172C532.984 484.641 536.734 465.188 551.734 437.812C552.578 436.312 553.75 435.375 555.25 435C556.844 434.531 558.391 434.672 559.891 435.422C561.297 436.266 562.234 437.484 562.703 439.078C563.172 440.578 562.984 442.078 562.141 443.578C556.609 453.984 552.906 462.375 551.031 468.75C549.156 475.125 548.359 479.953 548.641 483.234C549.016 486.422 549.625 488.531 550.469 489.562C552.625 492.938 556.328 494.953 561.578 495.609ZM568.469 412.641C570.156 412.641 571.609 413.25 572.828 414.469C574.047 415.688 574.656 417.141 574.656 418.828C574.656 420.516 574.047 421.969 572.828 423.188C571.609 424.406 570.156 425.016 568.469 425.016C566.781 425.016 565.328 424.406 564.109 423.188C562.891 421.969 562.281 420.516 562.281 418.828C562.281 417.141 562.891 415.688 564.109 414.469C565.328 413.25 566.781 412.641 568.469 412.641ZM820.75 453.562C821.969 452.25 823.375 451.594 824.969 451.594C826.562 451.5 828.016 451.969 829.328 453C830.547 454.219 831.156 455.625 831.156 457.219C831.25 458.812 830.781 460.266 829.75 461.578C825.156 466.641 819.109 472.641 811.609 479.578C804.109 486.516 796.234 492.516 787.984 497.578C779.828 502.547 773.078 505.078 767.734 505.172C765.766 505.172 764.172 504.844 762.953 504.188C761.734 503.438 760.797 502.641 760.141 501.797C756.391 496.828 755.828 490.406 758.453 482.531C761.172 474.562 765.016 465.938 769.984 456.656C774.203 448.875 777.297 442.125 779.266 436.406C779.734 435.188 780.016 434.203 780.109 433.453C771.297 437.484 762.297 442.641 753.109 448.922C744.016 455.203 734.969 461.766 725.969 468.609C714.531 477.422 702.953 485.672 691.234 493.359C685.609 496.922 680.875 497.812 677.031 496.031C676.094 495.656 675.062 494.859 673.938 493.641C672.812 492.422 672.062 490.594 671.688 488.156C671.312 485.531 671.828 482.016 673.234 477.609C675.578 470.672 678.344 463.969 681.531 457.5C684.625 451.219 687.203 444.984 689.266 438.797C689.359 438.609 689.406 438.422 689.406 438.234C681.156 442.172 672.766 447.984 664.234 455.672C655.703 463.359 647.266 471.562 638.922 480.281L614.312 505.172C613 506.391 611.594 507 610.094 507C608.875 507 607.75 506.672 606.719 506.016C605.5 505.172 604.703 504.094 604.328 502.781C603.953 501.375 604.047 499.969 604.609 498.562C613.703 479.062 629.641 455.438 652.422 427.688C653.547 426.375 654.906 425.672 656.5 425.578C658.094 425.391 659.547 425.812 660.859 426.844C662.172 427.969 662.875 429.328 662.969 430.922C663.156 432.516 662.734 433.969 661.703 435.281C655.234 443.156 649.141 450.984 643.422 458.766C650.641 451.547 657.953 445.031 665.359 439.219C672.766 433.312 680.219 428.906 687.719 426C691.281 424.781 694.516 424.922 697.422 426.422C699.859 427.922 701.359 430.125 701.922 433.031C702.203 436.219 701.828 439.312 700.797 442.312C698.359 449.344 695.547 456.141 692.359 462.703C689.266 468.891 686.688 475.031 684.625 481.125C684.344 482.156 684.109 483.047 683.922 483.797C684.203 483.609 684.484 483.422 684.766 483.234C696.109 475.828 707.406 467.766 718.656 459.047C728.031 451.922 737.453 445.125 746.922 438.656C756.391 432.094 765.906 426.656 775.469 422.344C780.344 420.281 784.375 420.141 787.562 421.922C788.406 422.297 789.297 423.094 790.234 424.312C791.266 425.438 791.969 427.125 792.344 429.375C792.531 433.219 791.969 436.781 790.656 440.062C788.406 446.625 785.078 453.984 780.672 462.141C779.078 465.141 777.297 468.703 775.328 472.828C773.359 476.953 771.672 480.938 770.266 484.781C768.953 488.531 768.484 491.344 768.859 493.219C774.109 492.469 781.562 488.391 791.219 480.984C800.969 473.484 810.812 464.344 820.75 453.562ZM914.266 469.172C907.234 477.891 900.297 484.828 893.453 489.984C886.609 495.141 880.141 498.984 874.047 501.516C867.953 504.047 862.562 505.688 857.875 506.438C853.188 507.188 849.578 507.562 847.047 507.562C846.578 507.562 846.156 507.562 845.781 507.562C830.688 506.812 821.125 500.297 817.094 488.016C814.656 479.484 815.594 470.531 819.906 461.156C824.219 451.781 831.109 443.672 840.578 436.828C846.391 432.797 852.531 430.312 859 429.375C863.125 428.906 866.922 429.469 870.391 431.062C873.953 432.656 876.156 435.422 877 439.359C877.938 446.391 875.547 452.203 869.828 456.797C864.203 461.391 857.406 465.047 849.438 467.766C841.469 470.484 834.391 472.547 828.203 473.953C827.453 477.984 827.547 481.5 828.484 484.5C829.984 488.812 832.422 491.766 835.797 493.359C839.266 494.859 842.734 495.609 846.203 495.609C848.734 495.797 853 495.281 859 494.062C865 492.75 871.984 489.703 879.953 484.922C887.922 480.047 896.219 472.312 904.844 461.719C905.969 460.406 907.328 459.656 908.922 459.469C910.516 459.281 911.969 459.703 913.281 460.734C914.594 461.859 915.344 463.219 915.531 464.812C915.719 466.312 915.297 467.766 914.266 469.172ZM847.469 446.531C841.844 450.656 837.438 455.109 834.25 459.891C843.438 457.266 850.281 454.781 854.781 452.438C859.281 450.094 862.188 448.031 863.5 446.25C864.906 444.375 865.516 442.922 865.328 441.891C864.578 441.422 863.406 441.188 861.812 441.188C861.438 441.188 861.016 441.234 860.547 441.328C856.047 441.891 851.688 443.625 847.469 446.531Z" fill="#FFA500"/>
</svg>
